<svg width="616" height="483" viewBox="0 0 616 483" fill="none" xmlns="http://www.w3.org/2000/svg">
<path d="M172.438 96.044C172.438 96.044 154.679 116.209 153.303 99.5381C151.927 82.867 179.231 81.4308 179.231 81.4308C178.551 77.3741 166.637 65.8109 166.637 65.8109C141.967 51.1534 138.755 81.1643 132.332 94.4598C125.909 107.755 122.254 99.1976 122.254 99.1976C111.998 77.3445 151.024 58.3341 151.024 58.3341C137.941 47.2151 127.582 51.642 127.582 51.642C86.5729 65.3223 111.776 88.9373 104.125 104.454C96.4737 119.97 93.0994 108.185 93.0994 108.185C86.5137 79.6986 108.417 54.2477 108.417 54.2477C95.7633 45.3644 82.2515 52.6191 82.2515 52.6191C59.3274 76.3081 81.2896 113.692 65.2767 106.349C49.2639 99.0051 71.8032 58.6154 71.8032 58.6154C71.8032 58.6154 61.7989 48.8585 49.1455 62.9238C36.4921 76.9891 59.1646 111.782 47.562 105.549C35.9593 99.316 31.7267 73.2137 31.7267 73.2137C-5.12356 104.513 44.5429 139.173 44.5429 139.173L44.4541 139.276C44.4541 139.276 18.7921 189.156 68.4734 202.94C68.4734 202.94 58.1139 177.993 65.1879 168.058C72.262 158.124 70.6785 197.818 89.5032 205.457C108.328 213.097 112.043 200.616 112.043 200.616C112.043 200.616 70.2345 173.24 80.5644 160.641C90.8943 148.041 91.4567 189.763 124.563 202.096C124.563 202.096 140.516 203.399 147.028 190.637C147.028 190.637 113.818 176.335 104.391 148.426C104.391 148.426 101.076 136.582 116.231 147.538C131.385 158.494 121.603 189.127 165.527 185.618C165.527 185.618 177.085 185.618 182.842 170.812C182.842 170.812 137.853 168.799 135.248 145.391C135.248 145.391 133.857 136.3 146.732 145.702C159.607 155.104 178.58 180.614 192.728 158.139C192.728 158.139 197.168 143.333 195.555 139.395C195.555 139.395 170.396 148.53 162.701 133.147C155.005 117.764 181.629 128.809 181.629 128.809C181.629 128.809 199.048 145.82 206.181 124.056L211.657 105.52H211.879L196.872 90.9508C178.817 74.2057 172.438 96.044 172.438 96.044Z" fill="#24374C"/>
<path d="M202.599 331.231C194.134 313.08 157.077 302.849 157.077 302.849C93.2622 283.543 106.863 195.701 106.863 195.701L123.69 202.66L110.089 192.296V183.235C114.529 164.476 129.461 173.507 129.461 173.507C144.261 164.431 161.161 187.04 164.402 195.568C165.269 198.004 166.639 200.23 168.424 202.1C170.209 203.97 172.369 205.442 174.762 206.42L178.669 223.876V210.299C220.817 240.666 206.018 286.607 196.931 296.32C187.845 306.032 196.931 318.839 196.931 318.839L202.599 331.231Z" fill="#0B6060"/>
<path d="M129.521 173.551C147.487 218.427 164.698 265.434 188.866 307.393C192.58 313.834 197.583 318.735 202.185 324.479C205.87 329.039 211.805 339.003 208.297 345.088C204.449 351.766 196.384 325.175 194.978 322.169C191.16 314.086 184.53 307.571 181.377 299.147C176.419 285.748 135.588 199.194 129.521 173.551Z" fill="#10949B"/>
<path d="M136.343 172.856C136.224 172.856 136.343 172.649 136.432 172.723C136.52 172.797 136.432 172.96 136.432 173.064C135.102 175.322 133.629 177.493 132.021 179.563" fill="#10949B"/>
<path d="M139.495 171.818C139.19 176.007 137.332 179.93 134.286 182.819L139.495 171.818Z" fill="#10949B"/>
<path d="M145.223 174.174C145.165 177.293 144.492 180.37 143.243 183.229C141.993 186.087 140.192 188.67 137.941 190.83" fill="#10949B"/>
<path d="M151.024 177.668C150.417 184.76 146.362 191.185 141.286 196.19L151.024 177.668Z" fill="#10949B"/>
<path d="M156.588 183.441C155.766 186.604 154.328 189.572 152.355 192.177C149.47 196.5 146.332 200.882 141.863 203.547" fill="#10949B"/>
<path d="M162.745 191.332C159.222 199.342 154.309 207.307 146.465 211.275L162.745 191.332Z" fill="#10949B"/>
<path d="M166.859 200.66C165.447 204.787 163.131 208.546 160.082 211.663C157.033 214.78 153.326 217.177 149.233 218.679" fill="#10949B"/>
<path d="M172.809 205.799C171.31 210.696 169.026 215.316 166.045 219.479C164.538 221.554 162.632 223.306 160.439 224.633C158.246 225.96 155.81 226.836 153.273 227.208" fill="#10949B"/>
<path d="M175.132 211.572C174.402 216.955 172.573 222.131 169.76 226.778C166.915 231.433 162.627 235.03 157.55 237.023" fill="#10949B"/>
<path d="M178.891 224.363C179.459 226.556 179.234 228.88 178.254 230.922C177.269 232.942 176.031 234.827 174.569 236.533C170.795 241.286 166.489 246.157 160.643 247.801" fill="#10949B"/>
<path d="M187.519 218.354C188.052 225.549 188.51 233.159 185.462 239.659C181.88 247.328 174.185 252.095 166.889 256.374" fill="#10949B"/>
<path d="M196.206 228.006C195.687 236.625 193.389 245.044 189.457 252.731C185.328 260.267 178.787 266.708 170.647 269.521" fill="#10949B"/>
<path d="M201.726 237.037C202.644 243.818 199.876 250.54 196.576 256.536C191.544 265.642 184.337 274.525 174.244 277.012" fill="#10949B"/>
<path d="M206.477 255.322C205.278 265.005 198.041 272.719 190.908 279.396C187.593 282.491 184.012 285.644 179.572 286.621" fill="#10949B"/>
<path d="M206.018 277.295C201.788 281.1 197.891 285.261 194.371 289.732C191.84 292.944 188.999 296.601 184.944 296.986" fill="#10949B"/>
<path d="M130.808 180.007C129.601 180.433 128.3 180.515 127.049 180.244C126.401 180.089 125.771 179.865 125.169 179.578C122.594 178.396 120.367 176.571 118.702 174.277" fill="#10949B"/>
<path d="M132.643 183.22C129.151 184.154 125.456 183.989 122.062 182.746C118.671 181.493 115.764 179.197 113.759 176.188" fill="#10949B"/>
<path d="M135.988 191.866C134.088 191.67 132.168 191.785 130.305 192.207C123.423 192.917 116.63 188.713 112.945 182.85" fill="#10949B"/>
<path d="M137.941 197.033C135.429 198.879 132.351 199.79 129.239 199.609C127.244 199.72 125.255 199.29 123.482 198.366" fill="#10949B"/>
<path d="M140.22 203.578C137.241 204.541 134.111 204.947 130.985 204.777C130.325 204.8 129.663 204.74 129.017 204.599C128.421 204.425 127.845 204.187 127.3 203.889L123.985 202.23" fill="#10949B"/>
<path d="M143.165 212.89C140.195 214.008 137.07 214.662 133.901 214.829C132.221 214.782 130.547 214.594 128.899 214.267C125.438 213.792 122.026 213.014 118.702 211.942C115.351 210.846 112.346 208.891 109.985 206.271" fill="#10949B"/>
<path d="M146.17 219.123C142.967 220.584 139.539 221.491 136.032 221.803C129.402 222.321 122.876 220.322 116.512 218.442C113.448 217.509 110.178 216.429 108.254 213.867" fill="#10949B"/>
<path d="M149.351 227.339C143.565 231.307 136.136 231.899 129.121 231.929C125.68 232.055 122.237 231.732 118.88 230.967C115.504 230.188 112.481 228.314 110.281 225.637" fill="#10949B"/>
<path d="M154.96 238.281C148.207 243.08 140.097 245.596 131.814 245.461C123.516 245.255 115.584 242.003 109.526 236.326" fill="#10949B"/>
<path d="M159.282 248.438C157.343 250.284 155.215 251.922 152.933 253.323C150.77 254.494 148.468 255.385 146.081 255.974C140.319 257.644 134.292 258.202 128.322 257.617C122.321 257.01 116.616 254.715 111.865 250.999" fill="#10949B"/>
<path d="M163.292 259.201C156.351 265.123 147.013 267.389 137.985 268.558C131.696 269.373 124.947 269.654 119.353 266.648" fill="#10949B"/>
<path d="M169.138 270.514C168.674 271.432 167.961 272.202 167.081 272.735C156.219 280.567 141.597 281.84 128.603 278.657" fill="#10949B"/>
<path d="M172.364 278.42C167.673 282.993 161.859 286.248 155.509 287.857C149.159 289.466 142.497 289.372 136.195 287.585" fill="#10949B"/>
<path d="M176.493 287.717C173.481 290.761 169.805 293.066 165.754 294.453C161.702 295.84 157.385 296.271 153.14 295.712" fill="#10949B"/>
<path d="M180.371 297.592C177.825 300.124 174.199 301.175 170.662 301.797C167.495 302.344 164.286 302.612 161.072 302.596" fill="#10949B"/>
<path d="M449.037 165.29C449.037 165.29 455.934 136.597 464.976 151.773C474.019 166.948 449.6 182.864 449.6 182.864C452.116 186.373 468.439 191.111 468.439 191.111C497.89 191.985 486.894 161.589 486.613 145.451C486.332 129.312 493.702 135.649 493.702 135.649C513.281 151.091 486.302 190.001 486.302 190.001C503.484 193.613 510.884 183.901 510.884 183.901C542.214 149.033 508.087 139.839 507.924 120.962C507.761 102.085 516.315 111.531 516.315 111.531C535.554 135.22 527.326 171.227 527.326 171.227C543.072 173.004 552.115 158.879 552.115 158.879C562.193 124.13 524.618 99.9825 542.732 98.4872C560.846 96.9918 558.922 147.597 558.922 147.597C558.922 147.597 572.626 151.58 577.762 131.43C582.897 111.279 545.81 90.1072 559.322 89.8407C572.834 89.5742 588.921 112.36 588.921 112.36C608.16 62.8353 546.506 56.0987 546.506 56.0987V55.9507C546.506 55.9507 546.876 -5.35933 494.827 7.83246C494.827 7.83246 515.901 26.2062 514.066 39.4276C512.23 52.649 495.182 13.9176 474.329 16.6122C453.477 19.3068 455.89 33.2093 455.89 33.2093C455.89 33.2093 507.006 37.1772 503.484 54.781C499.962 72.3849 479.953 32.7207 443.828 38.5689C443.828 38.5689 428.57 45.8088 428.54 61.4583C428.54 61.4583 465.672 57.4904 487.308 79.2251C487.308 79.2251 495.833 88.7303 476.86 86.3614C457.887 83.9925 452.575 49.4658 413.874 76.1455C413.874 76.1455 403.248 82.275 404.862 99.5384C404.862 99.5384 447.128 77.5668 460.403 98.5612C460.403 98.5612 465.909 106.512 449.718 104.365C433.528 102.218 404.225 87.916 401.68 116.905C401.68 116.905 404.551 133.458 407.807 136.33C407.807 136.33 426.661 114.226 440.883 124.856C455.105 135.486 425.447 138.921 425.447 138.921C425.447 138.921 401.532 131.903 405.113 156.51L408.695 177.135L408.517 177.297L429.073 183.22C453.329 189.512 449.037 165.29 449.037 165.29Z" fill="#24374C"/>
<path d="M336.489 331.676L328.704 330.876L343.444 125.996L351.214 126.796L336.489 331.676Z" fill="#6D431B"/>
<path d="M244.777 135.16L248.566 137.692L449.481 147.937L445.989 143.836L244.777 135.16Z" fill="#6D431B"/>
<path d="M446.048 91.1582L448.312 93.3939L447.542 120.488L437.73 122.531L445.263 118.252L446.048 91.1582Z" fill="#6D431B"/>
<path d="M445.13 122.916L447.469 123.034L447.069 136.996L442.2 136.744L446.832 145.465L444.494 145.347L431.915 135.382L437.523 129.727L445.13 122.916Z" fill="#6D431B"/>
<path d="M246.316 80.9727L250.357 90.0781L245.976 92.8319L245.665 103.833L247.708 107.327L245.488 110.184L244.777 135.161L444.494 145.347L438.559 134.45L444.76 136.035L445.13 122.917L437.731 122.532L445.264 118.253L446.048 91.1589L246.316 80.9727Z" fill="#B4763B"/>
<g opacity="0.38">
<path d="M280.696 82.0675C280.438 83.6435 279.809 85.1355 278.86 86.4203C278.335 87.1238 277.676 87.7174 276.922 88.1674C276.13 88.6384 275.224 88.8842 274.302 88.878C272.753 88.6468 271.221 88.3154 269.715 87.8861C269.018 87.7927 268.309 87.8487 267.635 88.0504C266.962 88.252 266.339 88.5947 265.807 89.0557C264.65 90.0916 263.355 90.9634 261.96 91.6467C260.375 92.3064 258.643 92.5313 256.943 92.2981C255.439 92.0719 253.955 91.7304 252.503 91.2766C251.037 90.8532 249.611 90.3034 248.241 89.6331V89.337C251.182 88.9101 254.164 88.8455 257.12 89.1446C258.377 89.304 259.652 89.259 260.894 89.0113C262.093 88.6708 263.454 88.0341 264.979 87.6048C266.489 87.121 268.07 86.8957 269.655 86.9385C271.098 86.9542 272.536 86.78 273.932 86.4203C274.481 86.28 275.015 86.0918 275.531 85.8577C276.056 85.5662 276.552 85.224 277.011 84.8361C278.047 84.007 279.023 82.8966 280.266 81.875L280.696 82.0675Z" fill="#6D431B"/>
<path d="M295.421 83.7705C294.259 86.0568 292.261 87.8068 289.841 88.6563C288.615 89.1115 287.316 89.3374 286.008 89.3226C284.949 89.2526 283.886 89.2526 282.827 89.3226C282.395 89.3763 281.979 89.5184 281.605 89.7401C281.231 89.9617 280.906 90.258 280.651 90.6107C280.407 91.0091 280.307 91.4798 280.37 91.9432C280.462 92.5814 280.462 93.2296 280.37 93.8679C280.306 94.2295 280.159 94.5713 279.94 94.8666C279.722 95.162 279.439 95.4029 279.112 95.5705C278.495 95.8985 277.792 96.0277 277.099 95.9407C275.92 95.6544 274.759 95.2984 273.621 94.8747C271.501 94.508 269.321 94.7072 267.302 95.4521C265.215 96.2368 263.055 97.1251 260.568 97.7174C258.128 98.213 255.614 98.221 253.171 97.7407C250.727 97.2605 248.403 96.3015 246.332 94.9191L246.45 94.6378C250.872 95.6528 255.466 95.6528 259.888 94.6378C262.019 94.1492 264.253 93.3793 266.681 92.8759C267.929 92.6012 269.206 92.477 270.484 92.5058C271.804 92.5703 273.095 92.9134 274.273 93.5126C275.22 94.1634 276.244 94.6955 277.321 95.0968C278.254 95.3485 279.438 94.7858 279.482 93.8827C279.465 93.346 279.36 92.8158 279.171 92.3133C278.97 91.6118 278.97 90.868 279.171 90.1665C279.401 89.4443 279.8 88.7877 280.336 88.2519C280.871 87.716 281.528 87.3165 282.249 87.0869C283.503 86.7524 284.806 86.6471 286.097 86.776C287.153 86.8369 288.213 86.7623 289.25 86.5539C291.41 86.0427 293.431 85.062 295.169 83.6816L295.421 83.7705Z" fill="#6D431B"/>
<path d="M311.315 84.0078C311.716 84.0234 312.102 84.1627 312.42 84.4067C312.738 84.6506 312.972 84.9871 313.091 85.3699C313.26 85.7604 313.346 86.181 313.346 86.6062C313.346 87.0313 313.26 87.452 313.091 87.8425C312.717 88.5876 312.137 89.2094 311.419 89.6339C310.789 90.0218 310.113 90.3302 309.406 90.5519C308.846 90.7386 308.301 90.9714 307.778 91.2478C307.36 91.4544 307.007 91.7719 306.757 92.1657C306.514 92.5444 306.215 92.8838 305.869 93.1725C305.598 93.3862 305.286 93.5423 304.952 93.6315C304.695 93.6942 304.432 93.7289 304.167 93.7351H303.694C303.561 93.7825 303.447 93.8706 303.368 93.9868C303.057 94.3273 302.717 94.9492 302.214 95.5562C301.726 96.1288 301.158 96.6275 300.527 97.0367C299.326 97.8107 297.991 98.353 296.59 98.6357C293.904 99.0606 291.177 99.1699 288.465 98.9615L280.563 98.8578C277.943 98.8578 275.338 98.8578 272.734 99.0059C267.495 99.0059 262.285 99.3612 256.898 99.5093V99.2132C261.928 97.2783 267.233 96.1539 272.615 95.8819C275.315 95.7658 278.02 95.835 280.711 96.0892C283.394 96.3101 286.056 96.7408 288.673 97.3773C291.141 98.1457 293.767 98.263 296.294 97.7178C297.492 97.365 298.574 96.7009 299.432 95.7931C299.831 95.3496 300.165 94.851 300.423 94.3125C300.69 93.6842 300.991 93.0712 301.326 92.4766C301.609 92.0316 301.995 91.661 302.451 91.3958C302.728 91.2455 303.028 91.1405 303.339 91.0849H303.96H304.123C304.286 90.9461 304.43 90.7869 304.552 90.6111C305.103 89.9019 305.827 89.3462 306.654 88.9973C307.337 88.7139 308.046 88.4958 308.77 88.3458C309.873 88.2397 310.912 87.7772 311.73 87.0282C312.263 86.4359 312.425 84.8073 311.33 84.3039L311.315 84.0078Z" fill="#6D431B"/>
<path d="M321.083 84.9688C321.517 85.1799 321.877 85.5181 322.115 85.9385C322.353 86.3589 322.458 86.8416 322.415 87.3228C322.385 88.2904 322.06 89.2257 321.483 90.0027C321.175 90.4189 320.794 90.7752 320.358 91.0539C319.972 91.3094 319.561 91.5228 319.129 91.6905C318.301 92.0458 317.502 92.2975 316.806 92.5788C316.173 92.8103 315.594 93.1679 315.104 93.63C314.616 94.089 314.127 94.7552 313.432 95.4215C312.09 96.6412 310.499 97.5555 308.77 98.1013C305.546 99.1195 302.238 99.8479 298.884 100.278C295.613 100.84 292.358 101.462 289.102 102.188C287.421 102.608 285.698 102.837 283.966 102.869C282.243 102.778 280.532 102.515 278.861 102.084C275.767 101.508 272.604 101.398 269.478 101.758C266.266 101.98 262.996 102.484 259.607 102.587C256.212 102.831 252.802 102.403 249.573 101.329V101.033C256.218 101.477 262.33 99.3598 269.108 98.6195C270.823 98.4342 272.55 98.3897 274.273 98.4863C276.018 98.6233 277.747 98.9207 279.438 99.3746C280.953 99.8425 282.495 100.218 284.055 100.5C285.632 100.681 287.224 100.706 288.806 100.574C292.107 100.452 295.39 100.035 298.618 99.3302C301.782 98.5233 304.841 97.3507 307.734 95.8361C309.113 95.2353 310.402 94.4482 311.567 93.4968C312.1 93.0526 312.618 92.4012 313.358 91.7497C314.127 91.1248 315.02 90.6705 315.977 90.4172C316.85 90.1359 317.65 90.0175 318.39 89.825C318.741 89.7267 319.087 89.6081 319.425 89.4697C319.722 89.3558 319.994 89.1848 320.225 88.9663C320.798 88.5121 321.225 87.8995 321.453 87.2044C321.577 86.8659 321.601 86.499 321.522 86.1472C321.443 85.7955 321.265 85.4738 321.009 85.2204L321.083 84.9688Z" fill="#6D431B"/>
<path d="M332.966 85.5469C333.36 85.9478 333.646 86.4415 333.799 86.9823C333.952 87.5231 333.966 88.0936 333.84 88.6412C333.612 89.7402 333.102 90.7608 332.36 91.6024C331.98 92.0304 331.547 92.4085 331.072 92.7276C330.596 93.0209 330.102 93.283 329.592 93.5123C328.63 93.9417 327.698 94.3118 326.869 94.7115C326.106 95.058 325.425 95.5627 324.871 96.1921C324.368 96.7103 324.161 97.569 323.391 98.6943C322.957 99.2957 322.362 99.7626 321.675 100.042C321.079 100.273 320.449 100.403 319.81 100.427C318.641 100.427 317.768 100.427 316.85 100.427C314.933 100.497 313.035 100.836 311.211 101.433C309.336 102.113 307.511 102.924 305.751 103.861C302.031 105.701 297.887 106.514 293.748 106.215C289.709 105.921 285.694 105.352 281.731 104.513C277.898 103.875 273.999 103.731 270.129 104.083C262.359 104.661 254.649 106.926 246.775 108.806L246.687 108.525C253.888 104.625 261.734 102.057 269.847 100.945C273.999 100.545 278.188 100.825 282.249 101.774C286.26 102.618 290.034 103.906 293.911 104.602C295.862 104.972 297.856 105.057 299.831 104.853C301.778 104.6 303.657 103.971 305.366 103.003C307.112 102.055 308.755 100.856 310.634 99.9083C312.534 98.9673 314.565 98.3185 316.658 97.9836C317.64 97.8556 318.628 97.7766 319.617 97.7467C319.936 97.7612 320.254 97.705 320.548 97.5821C320.842 97.4593 321.106 97.2728 321.319 97.036C321.811 96.1682 322.349 95.3279 322.933 94.5191C323.765 93.6743 324.777 93.0268 325.892 92.624C327.92 91.7948 329.873 91.6172 331.191 90.4771C331.889 89.9099 332.442 89.184 332.804 88.3599C333.002 87.9479 333.096 87.4936 333.078 87.0368C333.06 86.5799 332.93 86.1345 332.7 85.7393L332.966 85.5469Z" fill="#6D431B"/>
<path d="M362.121 86.6875C362.706 87.0927 363.152 87.6682 363.398 88.3358C363.644 89.0033 363.679 89.7305 363.498 90.4185C363.339 91.1361 363.026 91.8106 362.581 92.3959C362.137 92.9812 361.571 93.4632 360.923 93.809C359.721 94.4586 358.444 94.956 357.119 95.2896C355.861 95.6301 354.589 95.941 353.316 96.1779C348.255 97.2143 343.238 97.8805 338.961 100.131C338.428 100.412 337.91 100.679 337.303 101.034C336.637 101.425 335.904 101.691 335.142 101.819C333.927 101.786 332.711 101.885 331.517 102.115C330.584 102.515 329.519 103.462 328.364 104.114C327.232 104.789 326.038 105.354 324.798 105.802C319.84 107.623 314.557 107.815 309.406 107.919C304.256 108.022 299.15 107.919 294.119 108.289C289.077 108.745 284.07 109.521 279.127 110.613C274.052 111.666 268.909 112.359 263.736 112.686C261.115 112.793 258.491 112.669 255.892 112.316C253.305 111.937 250.778 111.225 248.374 110.199L248.463 109.917C250.946 110.449 253.472 110.756 256.01 110.835C258.53 110.863 261.047 110.705 263.543 110.362C268.531 109.695 273.488 108.555 278.52 107.489C283.599 106.354 288.77 105.68 293.971 105.476C299.147 105.387 304.324 105.649 309.466 106.261C314.512 106.69 319.825 106.823 324.442 104.884C325.592 104.4 326.684 103.789 327.698 103.062C328.187 102.663 328.675 102.307 329.178 101.878C329.681 101.386 330.243 100.959 330.851 100.605C332.115 100.135 333.441 99.8507 334.787 99.7608C335.838 99.2713 336.831 98.6654 337.747 97.9546C340.064 96.5775 342.603 95.6155 345.25 95.1119C347.84 94.5345 350.415 94.2384 352.931 93.8978C355.393 93.6595 357.824 93.1632 360.183 92.4173C360.708 92.2299 361.187 91.9339 361.59 91.5487C361.993 91.1635 362.31 90.6977 362.521 90.1816C362.753 89.6466 362.822 89.0548 362.72 88.4806C362.617 87.9064 362.347 87.3753 361.944 86.954L362.121 86.6875Z" fill="#6D431B"/>
<path d="M440.099 96.607C431.767 95.467 423.45 94.5342 415.118 94.0308C406.786 93.5274 398.439 93.4386 390.092 93.557C381.725 93.5744 373.368 94.163 365.081 95.3189C360.969 95.7929 357.067 97.3912 353.804 99.9383C353.052 100.61 352.368 101.354 351.762 102.159C351.155 102.988 350.607 103.877 350.001 104.75C348.812 106.647 347.129 108.182 345.132 109.192C343.143 110.157 341.007 110.782 338.812 111.042C336.667 111.339 334.58 111.457 332.478 111.62C328.29 111.916 324.072 112.153 319.869 112.286C311.463 112.582 302.983 112.582 294.637 112.286C290.534 112.108 286.424 112.341 282.368 112.982C278.313 113.648 274.228 114.685 270.01 115.351C265.764 116.128 261.411 116.128 257.165 115.351C255.193 114.814 253.155 114.56 251.112 114.596C250.116 114.647 249.149 114.944 248.297 115.461C247.444 115.977 246.734 116.698 246.228 117.557L245.947 117.438C246.385 116.422 247.076 115.534 247.954 114.86C248.833 114.186 249.869 113.749 250.964 113.589C253.107 113.307 255.281 113.378 257.401 113.796C261.484 114.231 265.61 113.95 269.596 112.967C273.636 112.094 277.662 110.909 281.865 110.006C286.088 109.206 290.384 108.858 294.681 108.97C303.117 109.177 311.419 109.414 319.84 109.325C324.028 109.325 328.216 109.221 332.39 109.088C336.563 108.955 340.825 109.088 344.481 107.608C346.298 106.807 347.859 105.521 348.994 103.891C350.196 102.173 351.592 100.598 353.153 99.198C356.63 96.6192 360.703 94.9638 364.992 94.3862C373.281 92.8283 381.651 91.7359 390.062 91.1141C398.502 90.6497 406.965 90.8676 415.369 91.7656C423.768 92.6005 432.084 94.1257 440.232 96.3257L440.099 96.607Z" fill="#6D431B"/>
<path d="M243.653 119.792C245.823 118.509 248.152 117.513 250.579 116.831C252.986 116.116 255.432 115.538 257.905 115.099C262.818 114.181 267.761 113.352 272.704 112.76C282.632 111.569 292.615 110.902 302.613 110.761C312.603 110.672 322.578 110.85 332.567 111.176C342.557 111.501 352.517 112.168 362.447 113.248C372.377 114.329 382.263 115.795 392.045 117.69C397.055 118.555 401.993 119.797 406.815 121.406C408.014 121.85 409.213 122.28 410.382 122.887C411.018 123.134 411.636 123.426 412.232 123.76C413.021 124.182 413.688 124.799 414.17 125.552C414.693 126.445 414.852 127.506 414.614 128.513C414.367 129.424 413.851 130.239 413.134 130.852C411.985 131.888 410.571 132.585 409.05 132.866C398.69 134.805 388.701 132.629 378.933 132.585C376.49 132.559 374.047 132.697 371.622 132.999C370.409 133.118 369.24 133.414 368.041 133.651C367.449 133.784 366.872 133.976 366.295 134.139C365.726 134.291 365.167 134.479 364.622 134.702C363.601 135.161 362.728 135.916 362.728 136.789C362.805 137.379 362.923 137.963 363.083 138.536C363.138 138.914 363.109 139.3 362.999 139.665C362.889 140.031 362.701 140.368 362.447 140.654C361.947 141.129 361.342 141.479 360.681 141.675C360.019 141.871 359.321 141.906 358.643 141.779C357.456 141.487 356.22 141.452 355.018 141.675L354.914 141.409C356.134 141.03 357.425 140.934 358.688 141.127C359.245 141.198 359.812 141.134 360.34 140.941C360.867 140.747 361.341 140.431 361.722 140.017C361.877 139.836 361.986 139.621 362.04 139.389C362.094 139.157 362.092 138.915 362.032 138.684C361.8 138.076 361.627 137.446 361.515 136.804C361.495 136.406 361.555 136.008 361.692 135.634C361.83 135.26 362.041 134.918 362.314 134.628C362.792 134.098 363.364 133.662 364.001 133.34C364.588 133.047 365.197 132.8 365.821 132.599C366.428 132.392 367.02 132.14 367.627 131.963C368.853 131.597 370.098 131.296 371.356 131.06C373.854 130.575 376.389 130.302 378.933 130.245C389.041 129.949 399.046 131.637 408.532 129.742C409.476 129.561 410.354 129.131 411.077 128.498C411.323 128.296 411.507 128.029 411.61 127.728C411.66 127.517 411.628 127.295 411.521 127.106C410.884 126.418 410.078 125.908 409.183 125.626C408.073 125.137 406.948 124.678 405.824 124.249C401.203 122.576 396.464 121.25 391.646 120.281C381.923 118.312 372.14 116.387 362.328 114.788C352.507 113.161 342.58 112.255 332.626 112.079C327.654 112.079 322.681 112.168 317.709 112.404C312.736 112.641 307.749 112.893 302.791 113.174C292.846 113.678 282.915 114.107 273.029 114.981C268.086 115.425 263.129 115.899 258.23 116.58C253.294 116.989 248.448 118.147 243.86 120.015L243.653 119.792Z" fill="#6D431B"/>
<path d="M281.569 130.882C278.57 131.479 275.542 131.919 272.497 132.199C271.55 132.295 270.595 132.136 269.729 131.74C269.22 131.484 268.78 131.11 268.445 130.649C268.111 130.188 267.891 129.653 267.805 129.09C267.67 128.075 267.845 127.042 268.308 126.129C268.548 125.669 268.858 125.25 269.226 124.885C269.585 124.559 269.977 124.271 270.395 124.027C271.162 123.595 271.999 123.3 272.867 123.153C273.666 122.975 274.347 122.887 275.175 122.783C276.655 122.59 278.224 122.472 279.748 122.368C282.797 122.191 285.816 121.939 288.835 121.643L297.907 120.636C300.867 120.31 303.96 120.207 306.994 120.088C310.13 119.836 313.287 120.011 316.377 120.606C317.997 120.968 319.554 121.572 320.994 122.398C322.467 123.266 323.734 124.443 324.709 125.848L325.508 127.003L324.427 127.639C322.661 128.673 320.778 129.493 318.818 130.082C316.896 130.656 314.905 130.965 312.899 131V130.704C314.759 130.148 316.566 129.43 318.3 128.557C319.994 127.717 321.609 126.726 323.125 125.596L322.829 127.387C320.954 125.415 318.475 124.123 315.785 123.716C314.383 123.444 312.963 123.271 311.537 123.197C310.057 123.079 308.577 123.035 307.097 123.02C304.138 123.02 301.059 122.931 298.04 122.783C295.021 122.635 292.002 122.516 288.983 122.65C285.99 122.772 283.015 123.188 280.103 123.893C278.624 124.234 277.144 124.634 275.738 125.048C274.399 125.338 273.098 125.78 271.86 126.366C271.617 126.491 271.397 126.656 271.209 126.854C271.034 127.013 270.884 127.198 270.765 127.402C270.503 127.849 270.389 128.367 270.44 128.883C270.454 129.072 270.51 129.255 270.605 129.419C270.7 129.583 270.83 129.724 270.987 129.83C271.497 130.086 272.06 130.218 272.63 130.215C275.59 130.215 278.668 130.393 281.687 130.748L281.569 130.882Z" fill="#6D431B"/>
<path d="M314.912 132.659C317.032 133.023 319.184 133.177 321.334 133.118C323.366 133.028 325.315 132.291 326.899 131.015C327.627 130.365 328.216 129.575 328.631 128.691C328.911 128.124 329.264 127.597 329.681 127.121C330.195 126.577 330.852 126.187 331.576 125.996C332.834 125.767 334.129 125.849 335.349 126.233C336.459 126.544 337.421 126.796 338.472 127.018C342.601 127.918 346.835 128.232 351.051 127.951C353.079 127.832 354.751 127.225 355.491 125.73C355.666 125.41 355.758 125.051 355.758 124.686C355.758 124.321 355.666 123.962 355.491 123.642C355.136 122.991 354.411 122.621 354.011 122.813L348.447 125.508L352.887 121.303L355.166 119.186L355.654 120.563C345.704 118.903 335.661 117.854 325.582 117.424C320.55 117.157 315.518 117.039 310.487 116.802C305.455 116.565 300.423 116.328 295.45 116.402C285.489 116.806 275.597 118.26 265.941 120.74L258.541 122.473C256.247 122.931 253.983 124.086 254.575 125.878C255.019 126.864 255.765 127.684 256.706 128.217C257.723 128.922 258.775 129.574 259.858 130.171C262.049 131.367 264.374 132.296 266.784 132.94V133.236C264.238 132.903 261.749 132.226 259.385 131.223C258.194 130.737 257.041 130.163 255.936 129.505C254.63 128.874 253.565 127.835 252.902 126.544C252.587 125.751 252.55 124.874 252.799 124.057C253.06 123.27 253.543 122.576 254.19 122.058C255.306 121.181 256.599 120.554 257.979 120.222C260.406 119.497 262.818 118.741 265.26 118.12C274.998 115.425 285.135 113.249 295.45 113.5C300.571 113.589 305.603 113.974 310.635 114.433C315.666 114.892 320.683 115.455 325.715 116.017C335.734 117.231 345.768 118.268 355.846 118.978L357.489 119.097L356.335 120.355L354.219 122.65L353.153 121.17C353.528 120.994 353.937 120.903 354.352 120.903C354.766 120.903 355.175 120.994 355.55 121.17C356.233 121.465 356.815 121.954 357.223 122.576C357.656 123.189 357.903 123.914 357.933 124.664C357.963 125.378 357.836 126.091 357.563 126.751C357.034 128.039 356.056 129.091 354.81 129.712C353.683 130.269 352.455 130.592 351.199 130.66C346.726 131.007 342.227 130.617 337.88 129.505C335.719 129.017 333.529 127.936 332.049 128.217C331.339 128.336 330.895 128.794 330.318 129.698C329.734 130.753 328.931 131.672 327.965 132.392C326.028 133.756 323.683 134.414 321.32 134.258C319.108 134.099 316.925 133.661 314.823 132.955L314.912 132.659Z" fill="#6D431B"/>
<path d="M246.154 131.016C247.346 131.278 248.56 131.432 249.78 131.475C251.032 131.511 252.274 131.7 253.48 132.037C254.665 132.542 255.875 132.987 257.106 133.37C258.353 133.621 259.633 133.666 260.894 133.503C262.146 133.335 263.406 133.231 264.668 133.192C265.911 133.192 267.14 133.029 268.353 133.044C270.869 133.05 273.383 133.183 275.886 133.444V133.74C273.664 135.19 271.105 136.042 268.457 136.212C267.151 136.276 265.842 136.207 264.55 136.005C263.249 135.855 261.968 135.562 260.731 135.132C259.519 134.7 258.255 134.431 256.972 134.332C255.7 134.228 254.368 134.51 253.08 134.495C251.787 134.429 250.511 134.174 249.292 133.74C247.923 133.337 246.746 132.454 245.977 131.253L246.154 131.016Z" fill="#6D431B"/>
<path d="M441.327 114.774C439.226 114.774 437.154 114.774 435.082 114.981C433.01 115.188 430.968 115.307 428.925 115.573C426.945 115.75 424.99 116.142 423.094 116.743C422.276 117.014 421.527 117.464 420.904 118.061C420.657 118.3 420.463 118.588 420.333 118.907C420.203 119.225 420.14 119.567 420.149 119.911L419.113 118.653C420.238 118.919 421.363 119.171 422.473 119.452L423.953 119.837L423.316 121.229C422.976 121.97 422.375 122.56 421.629 122.887C421.234 123.066 420.805 123.159 420.371 123.159C419.937 123.159 419.508 123.066 419.113 122.887L420.786 121.688C420.787 122.062 420.93 122.422 421.185 122.695C421.542 123.061 421.963 123.357 422.428 123.568C423.42 124.072 424.707 124.368 425.936 124.916C427.138 125.454 428.288 126.103 429.369 126.855C429.912 127.217 430.431 127.612 430.923 128.04C431.486 128.477 431.946 129.033 432.27 129.668C432.431 130.026 432.503 130.418 432.48 130.81C432.457 131.202 432.339 131.582 432.137 131.919C431.736 132.524 431.171 133.001 430.509 133.296C429.898 133.591 429.251 133.806 428.585 133.932L426.72 134.332C424.234 134.865 421.748 135.413 419.246 135.901C414.249 136.95 409.194 137.697 404.107 138.137C401.561 138.374 399.016 138.566 396.456 138.715C395.198 138.803 393.866 138.803 392.667 138.848C392.2 138.86 391.737 138.935 391.291 139.07C390.935 139.218 390.876 139.292 390.787 139.44L389.737 137.293C392.134 137.959 394.546 138.552 396.959 139.159C399.371 139.766 401.783 140.328 404.21 140.861C409.079 141.972 413.978 142.904 418.906 143.822V144.119C413.868 144.101 408.836 143.764 403.84 143.112C401.354 142.771 398.853 142.386 396.441 141.913C394.028 141.439 391.498 140.891 389.041 140.299L387.31 139.884L387.99 138.152C388.208 137.667 388.523 137.232 388.915 136.873C389.307 136.514 389.768 136.239 390.269 136.064C391.029 135.814 391.823 135.679 392.623 135.665L396.441 135.576C398.957 135.576 401.472 135.487 403.988 135.309C409.02 134.983 414.052 134.643 419.084 134.184C421.6 133.932 424.115 133.651 426.617 133.266C427.841 133.154 429.045 132.88 430.198 132.452C430.704 132.235 431.14 131.881 431.456 131.43C431.586 131.205 431.654 130.95 431.654 130.69C431.654 130.43 431.586 130.175 431.456 129.95C430.781 128.987 429.869 128.217 428.807 127.714C427.747 127.094 426.62 126.597 425.447 126.233C424.308 125.878 423.05 125.745 421.718 125.256C420.99 125.013 420.317 124.631 419.735 124.131C419.05 123.537 418.599 122.718 418.462 121.821L418.255 120.178L420.134 120.607C420.325 120.654 420.525 120.627 420.697 120.533C420.877 120.436 421.018 120.279 421.096 120.089L421.999 121.866C420.86 121.644 419.735 121.377 418.61 121.125L417.589 120.903V119.926C417.582 119.211 417.718 118.501 417.989 117.839C418.264 117.234 418.651 116.687 419.128 116.225C420.03 115.387 421.107 114.76 422.28 114.389C423.361 114.043 424.479 113.824 425.61 113.737C426.661 113.619 427.726 113.53 428.777 113.501C430.898 113.404 433.023 113.434 435.141 113.589C437.244 113.752 439.335 114.048 441.401 114.478L441.327 114.774Z" fill="#6D431B"/>
<path d="M431.189 104.365C430.464 102.973 428.94 102.648 427.46 102.322L422.857 101.36C419.779 100.738 416.716 100.249 413.638 99.6717C410.57 98.9703 407.453 98.505 404.314 98.28C402.739 98.2206 401.162 98.2651 399.593 98.4132C398.087 98.4947 396.618 98.9039 395.286 99.6125C394.76 99.899 394.344 100.352 394.102 100.901C393.97 101.393 394.012 101.916 394.221 102.381C394.468 102.921 394.844 103.392 395.316 103.751C395.789 104.11 396.343 104.346 396.929 104.439C398.396 104.733 399.878 104.941 401.369 105.061L406.031 105.535C412.246 106.216 418.492 106.556 424.885 107.015V107.311C418.613 108.771 412.156 109.271 405.735 108.792C404.122 108.644 402.523 108.496 400.94 108.229C399.293 107.992 397.662 107.655 396.056 107.223C395.123 106.933 394.258 106.46 393.51 105.831C392.738 105.134 392.183 104.229 391.912 103.225C391.757 102.709 391.706 102.167 391.762 101.63C391.818 101.094 391.979 100.574 392.238 100.101C392.771 99.2481 393.573 98.597 394.517 98.2504C396.113 97.7137 397.791 97.4631 399.475 97.5101L404.255 97.4213C407.451 97.4213 410.678 97.0955 413.904 97.3324C417.137 97.5866 420.33 98.2126 423.42 99.1979C424.977 99.6525 426.509 100.191 428.008 100.812C428.801 101.13 429.547 101.553 430.228 102.07C430.582 102.331 430.881 102.661 431.105 103.04C431.328 103.419 431.473 103.84 431.53 104.276L431.189 104.365Z" fill="#6D431B"/>
<path d="M437.08 100.812C430.299 98.6599 423.325 97.1723 416.257 96.3699C412.747 95.993 409.22 95.8003 405.69 95.7925C402.168 95.7925 398.616 95.7925 395.094 96.1774C391.572 96.5624 387.975 97.0658 384.364 97.3175C383.462 97.3175 382.544 97.4211 381.641 97.4211C380.739 97.4211 379.821 97.4211 378.963 97.4211C378.142 97.4168 377.335 97.6314 376.624 98.0429C376.31 98.2567 376.048 98.5377 375.856 98.8654C375.664 99.1932 375.547 99.5596 375.514 99.9381C375.434 100.733 375.583 101.535 375.944 102.248C376.286 102.964 376.793 103.588 377.424 104.069C378.88 104.999 380.466 105.707 382.13 106.171C385.504 107.4 388.849 108.703 392.193 109.991L393.525 110.509L392.815 111.827L391.838 113.678V112.375C391.927 112.478 392.016 112.552 392.386 112.626C392.876 112.7 393.375 112.7 393.866 112.626L397.432 112.301L404.595 111.679C409.36 111.309 414.141 111.013 418.921 110.761C423.701 110.509 428.496 110.376 433.217 110.08C437.951 109.844 442.621 108.891 447.069 107.252L447.202 107.519C445.11 108.76 442.88 109.754 440.557 110.48C438.229 111.178 435.855 111.717 433.454 112.093C428.659 112.878 423.893 113.233 419.128 113.722C414.363 114.211 409.597 114.551 404.817 114.847L397.639 115.262L393.969 115.484C393.248 115.554 392.521 115.524 391.809 115.395C391.329 115.286 390.878 115.077 390.485 114.781C390.092 114.485 389.766 114.109 389.529 113.678L389.174 112.967L389.544 112.36L390.61 110.554L391.231 112.39C387.975 110.909 384.705 109.428 381.464 107.948C379.705 107.244 378.055 106.291 376.565 105.12C375.803 104.471 375.213 103.643 374.849 102.711C374.485 101.778 374.357 100.769 374.479 99.7752C374.555 99.2582 374.742 98.7636 375.025 98.3244C375.308 97.8853 375.682 97.5117 376.121 97.2286C376.973 96.7426 377.938 96.4922 378.918 96.5032C380.706 96.5612 382.495 96.5068 384.276 96.3403C387.813 95.9702 391.261 94.993 394.828 94.3415C398.402 93.6338 402.032 93.2424 405.675 93.1719C409.321 93.1443 412.963 93.4067 416.568 93.9566C423.766 95.0023 430.739 97.2442 437.198 100.59L437.08 100.812Z" fill="#6D431B"/>
</g>
<path d="M291.595 105.173C291.465 110.391 290.539 114.376 288.818 117.129C288.111 118.402 287.047 119.449 285.752 120.147C284.457 120.845 282.986 121.164 281.512 121.066C279.98 121 278.492 120.538 277.201 119.726C275.909 118.914 274.859 117.782 274.156 116.443C272.387 113.494 271.559 109.398 271.689 104.121C271.571 99.8314 272.607 95.5869 274.692 91.8153C275.426 90.4692 276.539 89.3585 277.898 88.6153C279.256 87.8721 280.804 87.5276 282.356 87.623C284.145 87.6569 285.867 88.2991 287.227 89.4402C288.599 90.6209 289.606 92.1564 290.133 93.8716C291.242 97.5359 291.736 101.353 291.595 105.173ZM289.971 104.297C290.216 100.666 289.587 97.0289 288.136 93.6803C287.676 92.4993 286.878 91.4739 285.838 90.7274C284.798 89.9809 283.561 89.545 282.275 89.4721C280.979 89.4276 279.698 89.7456 278.579 90.3892C277.461 91.0327 276.552 91.9751 275.959 93.1065C274.125 96.5424 273.235 100.388 273.377 104.265C273.247 109.94 274.33 114.153 276.624 116.905C277.161 117.599 277.844 118.171 278.625 118.584C279.407 118.996 280.269 119.239 281.155 119.297C282.652 119.417 284.148 119.047 285.409 118.244C286.573 117.402 287.477 116.26 288.023 114.945C289.352 111.548 290.013 107.935 289.971 104.297Z" fill="#F2F2F2"/>
<path d="M315.823 109.999C315.804 111.897 315.566 113.786 315.112 115.63C314.82 116.94 314.307 118.193 313.593 119.336C313.035 120.148 312.315 120.841 311.477 121.371C310.511 122.003 309.4 122.386 308.245 122.483C307.09 122.58 305.929 122.389 304.869 121.928C303.927 121.544 303.059 121.007 302.3 120.338C301.276 119.335 300.54 118.084 300.167 116.711C299.616 114.778 299.381 112.769 299.472 110.763C299.412 107.558 300.22 104.396 301.815 101.602C302.425 100.526 303.335 99.6443 304.437 99.061C305.539 98.4776 306.787 98.2168 308.035 98.3092C309.267 98.3176 310.472 98.6607 311.519 99.3006C312.565 99.9404 313.411 100.852 313.965 101.936C315.292 104.417 315.933 107.198 315.823 109.999ZM306.888 120.688H307.421H307.906C311.929 120.449 314.029 116.934 314.191 110.111C314.323 107.662 313.835 105.218 312.769 103.001C312.301 102.088 311.582 101.322 310.694 100.791C309.806 100.259 308.784 99.9836 307.745 99.9952C307.038 99.9491 306.331 100.06 305.674 100.318C305.017 100.577 304.427 100.977 303.948 101.49C302.16 103.367 301.217 106.373 301.12 110.508V110.874C300.996 113.178 301.463 115.475 302.477 117.554C302.883 118.406 303.502 119.143 304.276 119.694C305.051 120.245 305.955 120.592 306.904 120.703L306.888 120.688Z" fill="#F2F2F2"/>
<path d="M340.039 111.423C340.021 113.321 339.782 115.21 339.329 117.054C339.04 118.36 338.527 119.608 337.81 120.744C337.252 121.561 336.532 122.259 335.693 122.795C334.728 123.427 333.617 123.809 332.462 123.907C331.307 124.004 330.145 123.813 329.085 123.352C328.142 122.972 327.273 122.434 326.516 121.761C325.492 120.759 324.757 119.508 324.383 118.135C323.832 116.201 323.597 114.193 323.689 112.187C323.628 108.982 324.437 105.82 326.031 103.025C326.641 101.95 327.551 101.068 328.653 100.485C329.755 99.9014 331.004 99.6406 332.252 99.7331C333.481 99.7418 334.685 100.083 335.731 100.72C336.777 101.357 337.624 102.264 338.181 103.344C339.507 105.831 340.148 108.616 340.039 111.423ZM331.105 122.111H331.638H332.123C336.146 121.873 338.23 118.358 338.408 111.535C338.54 109.085 338.051 106.642 336.986 104.425C336.528 103.499 335.813 102.719 334.924 102.175C334.035 101.632 333.008 101.348 331.961 101.355C331.255 101.309 330.547 101.42 329.89 101.679C329.233 101.937 328.643 102.338 328.164 102.85C326.376 104.759 325.439 107.781 325.353 111.916V112.282C325.221 114.586 325.688 116.885 326.71 118.962C327.115 119.808 327.73 120.54 328.498 121.091C329.266 121.641 330.162 121.992 331.105 122.111Z" fill="#F2F2F2"/>
<path d="M350.253 136.753H348.599L349.475 100.606L351.129 100.687V103.57C351.886 102.612 352.852 101.832 353.957 101.289C355.062 100.745 356.277 100.451 357.514 100.428C358.905 100.543 360.215 101.114 361.235 102.047C363.832 104.217 365.089 107.732 364.973 112.574C364.824 118.307 362.724 121.951 358.671 123.538C356.061 124.437 353.299 124.839 350.534 124.72L350.253 136.753ZM362.211 117.853C362.948 116.017 363.318 114.06 363.303 112.088C363.375 109.743 362.804 107.422 361.649 105.367C361.273 104.489 360.663 103.725 359.884 103.155C359.104 102.585 358.183 102.231 357.216 102.128C356.079 102.075 354.957 102.407 354.04 103.067C352.916 103.892 351.894 104.843 350.997 105.902L350.6 122.906C356.637 123.198 360.524 121.481 362.211 117.853Z" fill="#F2F2F2"/>
<path d="M380.818 123.911C382.135 123.682 383.364 123.062 384.362 122.123C385.078 121.225 385.452 120.076 385.411 118.901C385.444 118.298 385.348 117.695 385.129 117.137C384.911 116.579 384.575 116.08 384.149 115.679C383.232 114.862 382.132 114.307 380.955 114.068C379.693 113.795 378.446 113.472 377.183 113.15C375.993 112.813 374.918 112.126 374.081 111.169C373.627 110.609 373.283 109.958 373.069 109.256C372.855 108.553 372.775 107.813 372.834 107.077C372.925 103.372 375.45 101.632 380.438 101.874C382.579 102.008 384.705 102.332 386.795 102.84V104.709C384.741 104.153 382.644 103.797 380.529 103.646C379.057 103.527 377.579 103.747 376.195 104.29C375.654 104.48 375.185 104.848 374.856 105.341C374.528 105.834 374.357 106.425 374.37 107.029C374.331 107.618 374.425 108.209 374.644 108.753C374.864 109.296 375.203 109.777 375.632 110.154C376.567 110.941 377.659 111.492 378.826 111.765C380.073 112.109 381.335 112.479 382.613 112.876C383.859 113.281 384.968 114.059 385.806 115.116C386.727 116.389 387.166 117.98 387.038 119.578C387.084 120.547 386.876 121.51 386.439 122.363C386.002 123.215 385.352 123.924 384.559 124.411C383.833 124.854 383.069 125.227 382.278 125.522C381.347 125.827 380.378 125.984 379.404 125.989C377.503 126.086 375.708 126.102 373.99 125.989H372.94V124.217C375.568 124.467 378.215 124.364 380.818 123.911Z" fill="#F2F2F2"/>
<path d="M398.364 126.781L395.607 126.627L395.698 121.795L398.456 121.966L398.364 126.781Z" fill="#F2F2F2"/>
<path d="M411.162 126.781L407.715 126.635L407.83 122.508L411.277 122.64L411.162 126.781Z" fill="#F2F2F2"/>
<path d="M423.293 127.492L420.536 127.346L420.627 123.219L423.385 123.365L423.293 127.492Z" fill="#F2F2F2"/>
<path d="M166.06 330.506C166.06 330.506 137.512 331.824 149.189 319.313C160.865 306.802 182.28 325.235 182.28 325.235C184.87 321.948 184.87 305.485 184.87 305.485C177.736 277.828 152.43 296.261 137.512 300.865C122.594 305.47 126.487 296.927 126.487 296.927C135.558 274.526 179.039 289.169 179.039 289.169C177.736 272.216 166.711 267.938 166.711 267.938C125.835 248.187 126.487 282.432 108.994 287.703C91.501 292.974 97.9682 282.432 97.9682 282.432C114.765 258.062 150.447 256.137 150.447 256.137C147.842 240.977 132.273 236.372 132.273 236.372C97.2431 236.372 84.9153 277.828 78.6404 261.393C72.3655 244.959 119.945 233.041 119.945 233.041C119.945 233.041 119.945 219.212 99.833 219.864C79.7207 220.515 69.9828 260.698 66.0906 248.187C62.1983 235.676 79.0695 214.593 79.0695 214.593C27.8196 209.988 38.1939 269.255 38.1939 269.255H38.0607C38.0607 269.255 -19.0646 285.438 7.23372 330.328C7.23372 330.328 18.6292 305.766 31.4306 303.9C44.232 302.035 12.7687 328.359 20.9083 347.044C29.0479 365.729 41.3165 359.777 41.3165 359.777C41.3165 359.777 31.2234 311.125 48.5682 309.719C65.913 308.312 34.346 337.568 49.5745 369.608C49.5745 369.608 60.4224 381.852 74.9849 377.662C74.9849 377.662 61.2808 344.157 75.6065 318.173C75.6065 318.173 82.1626 307.676 85.0633 325.975C87.9639 344.275 57.2998 358.548 92.5517 387.36C92.5517 387.36 101.12 395.606 116.734 389.447C116.734 389.447 84.9005 356.016 100.839 338.012C100.839 338.012 106.759 330.743 109.127 346.392C111.495 362.042 106.167 393.178 133.753 387.715C133.753 387.715 148.375 380.593 150.165 376.788C150.165 376.788 124.518 365.196 130.571 349.087C136.624 332.979 147.812 359.658 147.812 359.658C147.812 359.658 147.812 383.821 169.656 373.857L187.889 364.973L188.081 365.107V344.379C187.43 319.964 166.06 330.506 166.06 330.506Z" fill="#24374C"/>
<path d="M443.458 383.466C443.458 383.466 464.34 360.546 464.976 379.113C465.613 397.679 435.052 399.959 435.052 399.959C435.585 404.475 448.209 417.104 448.209 417.104C474.847 432.857 480.175 399.337 488.078 384.295C495.981 369.252 499.577 378.861 499.577 378.861C509.774 403.009 465.198 425.143 465.198 425.143C479.198 437.151 490.934 431.969 490.934 431.969C537.448 415.757 510.691 389.98 520.089 372.48C529.486 354.98 532.594 368.038 532.594 368.038C538.336 399.678 512.467 428.578 512.467 428.578C526.083 438.217 541.563 429.792 541.563 429.792C568.438 402.905 546.002 361.612 563.525 369.43C581.047 377.247 553.55 422.863 553.55 422.863C553.55 422.863 564.146 433.464 579.079 417.533C594.011 401.602 570.658 363.285 583.252 369.904C595.847 376.522 599.043 405.674 599.043 405.674C641.961 369.874 588.491 332.371 588.491 332.371L588.595 332.253C588.595 332.253 620.014 275.992 565.404 261.734C565.404 261.734 575.483 289.332 567.092 300.584C558.7 311.836 562.652 267.493 542.095 259.409C521.539 251.326 516.7 265.332 516.7 265.332C516.7 265.332 561.764 294.943 549.525 309.304C537.286 323.666 539.032 277.058 502.803 264.118C502.803 264.118 485.044 263.037 477.127 277.443C477.127 277.443 513.34 292.618 522.279 323.562C522.279 323.562 525.239 336.635 509.034 324.821C492.829 313.006 505.378 278.538 456.215 283.468C456.215 283.468 443.325 283.72 436.058 300.436C436.058 300.436 486.124 301.65 487.693 327.708C487.693 327.708 488.729 337.82 474.921 327.634C461.114 317.447 441.357 289.406 424.337 314.812C424.337 314.812 418.58 331.513 420.12 335.806C420.12 335.806 448.697 325.028 456.407 342.025C464.118 359.021 435.052 347.147 435.052 347.147C435.052 347.147 416.597 328.552 407.422 353.07L400.259 373.797H400.007L415.917 389.713C435.111 407.984 443.458 383.466 443.458 383.466Z" fill="#24374C"/>
<path d="M459.5 331.912C464.044 315.626 493.539 302.093 493.539 302.093C543.96 277.323 520.607 206.153 520.607 206.153L507.569 214.237L517.454 203.873L516.241 196.337C509.936 181.354 498.792 190.903 498.792 190.903C485.207 185.381 474.285 206.479 472.761 214.015C472.371 216.158 471.535 218.196 470.306 219.994C469.077 221.793 467.483 223.312 465.627 224.453L464.754 239.495L462.919 228.198C432.092 259.172 450.665 295.342 459.5 302.226C468.336 309.111 462.549 320.956 462.549 320.956L459.5 331.912Z" fill="#0B6060"/>
<path d="M498.718 190.83C489.913 230.598 482.025 272.024 467.64 310.208C465.435 316.13 461.942 320.838 458.849 326.257C456.407 330.551 452.841 339.582 456.585 344.231C460.699 349.25 463.777 326.035 464.547 323.34C466.619 316.1 471.236 309.778 472.701 302.346C475.025 290.561 497.179 212.979 498.718 190.83Z" fill="#10949B"/>
<path d="M492.962 191.184C493.051 191.184 492.962 191.007 492.858 191.081C492.755 191.155 492.858 191.273 492.932 191.347C494.3 193.051 495.784 194.659 497.372 196.159" fill="#10949B"/>
<path d="M490.165 190.74C490.99 194.181 493.069 197.191 495.995 199.179L490.165 190.74Z" fill="#10949B"/>
<path d="M485.725 193.494C486.189 196.078 487.16 198.544 488.583 200.749C490.005 202.955 491.851 204.857 494.012 206.345" fill="#10949B"/>
<path d="M481.389 197.121C482.869 202.94 487.116 207.722 492.015 211.186L481.389 197.121Z" fill="#10949B"/>
<path d="M477.57 202.748C478.676 205.267 480.276 207.538 482.277 209.425C485.236 212.623 488.477 215.851 492.547 217.45" fill="#10949B"/>
<path d="M473.516 210.15C477.556 216.324 482.721 222.276 489.795 224.512L473.516 210.15Z" fill="#10949B"/>
<path d="M471.384 218.471C473.118 221.71 475.554 224.521 478.514 226.696C481.474 228.871 484.884 230.355 488.492 231.041" fill="#10949B"/>
<path d="M467.137 223.564C469.055 227.432 471.589 230.963 474.64 234.017C476.174 235.535 477.996 236.731 479.999 237.534C482.001 238.338 484.144 238.733 486.302 238.696" fill="#10949B"/>
<path d="M465.982 228.672C467.337 233.023 469.562 237.053 472.524 240.516C475.523 244.005 479.583 246.413 484.082 247.371" fill="#10949B"/>
<path d="M464.621 239.852C464.453 241.758 464.979 243.661 466.101 245.211C467.192 246.759 468.48 248.158 469.934 249.372C473.722 252.821 477.955 256.271 483.046 256.848" fill="#10949B"/>
<path d="M456.615 236.002C457.162 242.057 457.799 248.409 461.232 253.428C465.258 259.35 472.302 262.223 478.991 264.799" fill="#10949B"/>
<path d="M450.709 245.195C452.322 252.284 455.38 258.962 459.693 264.813C464.063 270.688 470.443 274.746 477.615 276.213" fill="#10949B"/>
<path d="M447.35 253.473C447.528 259.247 450.739 264.458 454.306 268.974C459.722 275.874 466.93 282.299 475.661 282.951" fill="#10949B"/>
<path d="M445.9 269.328C448.223 277.22 455.297 282.653 462.179 287.213C465.361 289.345 468.765 291.477 472.539 291.655" fill="#10949B"/>
<path d="M449.289 287.539C453.334 290.119 457.147 293.047 460.684 296.289C463.23 298.599 466.086 301.264 469.564 301.027" fill="#10949B"/>
<path d="M498.541 196.367C499.602 196.556 500.694 196.443 501.693 196.041C502.214 195.829 502.71 195.561 503.173 195.242C505.162 193.907 506.773 192.081 507.85 189.941" fill="#10949B"/>
<path d="M497.446 199.298C500.477 199.585 503.523 198.939 506.177 197.447C508.831 195.941 510.935 193.628 512.186 190.844" fill="#10949B"/>
<path d="M495.833 206.938C497.389 206.517 499.003 206.347 500.613 206.435C506.444 206.094 511.505 201.667 513.769 196.293" fill="#10949B"/>
<path d="M494.871 211.512C497.215 212.7 499.899 213.035 502.463 212.46C504.138 212.282 505.734 211.653 507.08 210.639" fill="#10949B"/>
<path d="M493.924 217.243C496.532 217.643 499.192 217.553 501.767 216.977C502.318 216.903 502.859 216.769 503.381 216.577C503.847 216.338 504.292 216.061 504.712 215.748L507.243 213.912" fill="#10949B"/>
<path d="M492.754 225.385C495.374 225.917 498.06 226.036 500.716 225.74C502.106 225.465 503.472 225.079 504.801 224.586C507.622 223.719 510.361 222.605 512.985 221.254C515.628 219.889 517.86 217.845 519.452 215.332" fill="#10949B"/>
<path d="M491.097 230.968C493.959 231.742 496.931 232.027 499.888 231.812C505.467 231.323 510.647 228.85 515.664 226.333C518.076 225.149 520.651 223.802 521.895 221.418" fill="#10949B"/>
<path d="M489.573 238.251C494.93 240.768 501.19 240.235 507.021 239.303C509.902 238.942 512.723 238.205 515.412 237.111C518.11 236.001 520.364 234.028 521.82 231.5" fill="#10949B"/>
<path d="M486.406 248.126C492.68 251.187 499.767 252.168 506.636 250.925C513.509 249.618 519.661 245.829 523.922 240.279" fill="#10949B"/>
<path d="M484.245 257.158C486.104 258.423 488.088 259.495 490.165 260.356C492.122 261.027 494.155 261.449 496.218 261.614C501.247 262.218 506.345 261.857 511.239 260.548C516.144 259.231 520.574 256.546 524.011 252.805" fill="#10949B"/>
<path d="M482.336 266.648C488.907 270.631 496.972 271.238 504.653 270.972C509.996 270.779 515.649 270.113 519.897 266.841" fill="#10949B"/>
<path d="M479.021 276.865C479.53 277.568 480.228 278.112 481.033 278.435C491.141 283.469 503.469 282.521 513.828 278.064" fill="#10949B"/>
<path d="M477.422 283.883C481.952 287.038 487.231 288.946 492.731 289.414C498.23 289.882 503.756 288.893 508.752 286.548" fill="#10949B"/>
<path d="M475.262 292.158C478.18 294.278 481.548 295.693 485.104 296.294C488.66 296.895 492.307 296.666 495.759 295.623" fill="#10949B"/>
<path d="M473.367 300.865C475.962 302.46 478.985 303.215 482.025 303.027C484.732 303.06 487.437 302.847 490.105 302.39" fill="#10949B"/>
<path d="M315.385 326.892C315.385 326.892 339.241 367.785 383.802 332.814C383.802 332.814 342.142 357.036 320.165 323.635L315.385 326.892Z" fill="#17CECE"/>
<path d="M325.508 343.653C331.59 341.136 342.823 346.896 342.823 346.896C362.521 356.416 378.726 332.09 378.726 332.09L373.117 330.166L378.682 330.684L380.694 328.507C383.773 322.97 378.179 321.845 378.179 321.845C376.595 316.352 367.508 318.069 364.859 319.417C364.108 319.811 363.283 320.043 362.437 320.099C361.591 320.155 360.742 320.034 359.946 319.742L355.136 323.088L358.096 319.802C341.195 317.803 334.58 332.179 334.595 336.547C334.609 340.914 329.592 341.98 329.592 341.98L325.508 343.653Z" fill="#0B6060"/>
<path d="M378.178 321.77C363.867 328.625 349.275 336.161 334.121 340.928C331.814 341.512 329.463 341.903 327.091 342.098C325.197 342.379 321.556 343.475 321.053 345.725C320.55 347.975 328.349 343.549 329.356 343.134C332.079 342.038 335.127 341.935 337.747 340.602C341.92 338.47 371.016 326.611 378.178 321.77Z" fill="#10949B"/>
<path d="M376.684 320.082C376.684 320.082 376.684 320.082 376.684 320.171C376.491 321.004 376.357 321.85 376.284 322.703" fill="#10949B"/>
<path d="M376.21 319.135C375.348 320.213 374.925 321.578 375.026 322.955L376.21 319.135Z" fill="#10949B"/>
<path d="M374.242 318.439C373.561 319.202 373.038 320.091 372.702 321.057C372.367 322.023 372.226 323.045 372.288 324.066" fill="#10949B"/>
<path d="M372.081 317.965C370.732 319.905 370.109 322.259 370.32 324.613L372.081 317.965Z" fill="#10949B"/>
<path d="M369.432 318.143C368.939 319.092 368.632 320.127 368.529 321.193C368.152 322.864 368.152 324.599 368.529 326.271" fill="#10949B"/>
<path d="M366.191 318.691C365.077 321.362 364.899 324.331 365.688 327.116L366.191 318.691Z" fill="#10949B"/>
<path d="M363.127 320.023C362.555 321.336 362.282 322.76 362.328 324.192C362.374 325.623 362.738 327.026 363.394 328.3" fill="#10949B"/>
<path d="M360.552 319.949C359.824 321.465 359.349 323.091 359.147 324.761C359.05 325.598 359.122 326.446 359.358 327.254C359.595 328.063 359.991 328.816 360.523 329.469" fill="#10949B"/>
<path d="M358.717 320.822C357.699 322.288 356.99 323.945 356.631 325.693C356.288 327.454 356.527 329.278 357.311 330.89" fill="#10949B"/>
<path d="M354.973 323.088C354.348 323.487 353.886 324.096 353.671 324.805C353.458 325.512 353.338 326.244 353.315 326.982C352.985 328.963 353.286 330.999 354.174 332.8" fill="#10949B"/>
<path d="M354.218 319.713C352.352 321.192 350.895 323.123 349.986 325.324C349.142 327.974 349.986 330.832 350.755 333.482" fill="#10949B"/>
<path d="M349.971 320.111C348.2 322.292 346.891 324.811 346.123 327.514C345.376 330.265 345.666 333.195 346.937 335.746" fill="#10949B"/>
<path d="M346.611 321.074C344.981 322.67 343.902 324.745 343.533 326.996C342.734 330.313 342.497 334.059 344.391 336.901" fill="#10949B"/>
<path d="M341.432 324.436C339.567 327.041 339.596 330.521 339.848 333.719C339.837 335.217 340.231 336.69 340.988 337.983" fill="#10949B"/>
<path d="M336.666 329.854C336.822 331.716 336.822 333.588 336.666 335.45C336.515 336.104 336.496 336.781 336.611 337.442C336.725 338.103 336.97 338.735 337.332 339.299" fill="#10949B"/>
<path d="M376.432 323.043C376.63 323.413 376.927 323.721 377.29 323.931C377.483 324.041 377.686 324.131 377.897 324.198C378.782 324.483 379.725 324.534 380.635 324.346" fill="#10949B"/>
<path d="M375.278 323.414C375.915 324.416 376.845 325.196 377.942 325.65C379.041 326.094 380.253 326.182 381.405 325.901" fill="#10949B"/>
<path d="M372.54 324.762C373.046 325.135 373.486 325.59 373.842 326.109C374.644 326.92 375.653 327.496 376.759 327.775C377.865 328.054 379.026 328.026 380.117 327.693" fill="#10949B"/>
<path d="M370.912 325.561C371.098 326.558 371.62 327.462 372.392 328.122C372.845 328.593 373.418 328.931 374.049 329.099" fill="#10949B"/>
<path d="M368.929 326.641C369.433 327.541 370.1 328.339 370.897 328.995C371.052 329.139 371.22 329.268 371.4 329.38C371.581 329.477 371.776 329.547 371.977 329.587L373.146 329.927" fill="#10949B"/>
<path d="M366.146 328.24C366.618 329.17 367.226 330.024 367.952 330.772C368.37 331.132 368.815 331.459 369.284 331.749C370.22 332.4 371.21 332.97 372.244 333.452C373.299 333.936 374.462 334.135 375.618 334.029" fill="#10949B"/>
<path d="M364.045 329.084C364.495 330.144 365.12 331.12 365.895 331.971C367.483 333.479 369.341 334.674 371.371 335.495C372.256 336.044 373.291 336.303 374.33 336.235" fill="#10949B"/>
<path d="M361.411 330.357C362.12 332.571 363.469 334.523 365.288 335.969C366.09 336.761 366.99 337.448 367.967 338.012C368.961 338.566 370.109 338.784 371.237 338.634" fill="#10949B"/>
<path d="M357.667 331.764C358.221 334.426 359.623 336.836 361.662 338.633C363.707 340.43 366.341 341.41 369.062 341.387" fill="#10949B"/>
<path d="M354.366 333.26C354.424 334.137 354.573 335.005 354.81 335.851C355.075 336.612 355.433 337.339 355.876 338.012C356.901 339.699 358.237 341.176 359.812 342.365C361.397 343.552 363.285 344.266 365.258 344.423" fill="#10949B"/>
<path d="M351.051 334.963C351.604 337.93 353.008 340.672 355.091 342.854C356.307 344.567 358.032 345.851 360.02 346.526" fill="#10949B"/>
<path d="M347.085 336.398C346.989 336.727 346.989 337.077 347.085 337.405C347.628 339.541 348.623 341.535 350.001 343.254C351.38 344.972 353.11 346.376 355.076 347.369" fill="#10949B"/>
<path d="M344.54 337.568C344.661 339.716 345.346 341.794 346.526 343.592C347.705 345.391 349.338 346.847 351.258 347.814" fill="#10949B"/>
<path d="M341.491 338.93C341.541 340.334 341.917 341.708 342.587 342.944C343.257 344.179 344.204 345.243 345.353 346.051" fill="#10949B"/>
<path d="M338.368 340.439C338.5 341.619 338.991 342.73 339.774 343.623C340.423 344.457 341.141 345.234 341.92 345.947" fill="#10949B"/>
<path d="M224.908 247.8V272.6H207.108V305H179.108V272.6H108.908V248.6L185.908 158.4H207.108V247.8H224.908ZM179.108 205.6L144.708 247.8H179.108V205.6ZM307.083 308C297.349 308 288.349 306 280.083 302C271.816 298 264.683 292.267 258.683 284.8C253.083 277.867 248.816 269.933 245.883 261C243.083 251.933 241.683 242.267 241.683 232C241.683 220.8 243.283 210.6 246.483 201.4C249.683 192.067 254.149 184.067 259.883 177.4C265.616 170.733 272.483 165.533 280.483 161.8C288.616 158.067 297.483 156.2 307.083 156.2C316.549 156.2 325.283 158.133 333.283 162C341.283 165.733 348.149 171 353.883 177.8C359.749 184.467 364.283 192.467 367.483 201.8C370.816 211 372.483 221.067 372.483 232C372.483 242.133 370.949 251.733 367.883 260.8C364.949 269.867 360.683 277.867 355.083 284.8C349.083 292.4 341.949 298.2 333.683 302.2C325.416 306.067 316.549 308 307.083 308ZM307.083 182.4C302.816 182.4 298.483 183.4 294.083 185.4C289.683 187.267 285.683 190.2 282.083 194.2C278.616 198.2 275.749 203.333 273.483 209.6C271.216 215.867 270.083 223.333 270.083 232C270.083 237.867 270.816 243.8 272.283 249.8C273.749 255.667 275.949 261 278.883 265.8C281.949 270.467 285.816 274.333 290.483 277.4C295.149 280.333 300.683 281.8 307.083 281.8C311.483 281.8 315.883 280.733 320.283 278.6C324.683 276.467 328.616 273.333 332.083 269.2C335.683 264.933 338.549 259.733 340.683 253.6C342.816 247.333 343.883 240.133 343.883 232C343.883 225.333 342.949 218.6 341.083 211.8C339.349 205 336.816 199.467 333.483 195.2C326.816 186.667 318.016 182.4 307.083 182.4ZM508.697 247.8V272.6H490.897V305H462.897V272.6H392.697V248.6L469.697 158.4H490.897V247.8H508.697ZM462.897 205.6L428.497 247.8H462.897V205.6Z" fill="#F2F2F2"/>
<path d="M405.35 481.744C405.35 481.744 425.225 467.901 432.595 478.131C432.595 478.131 434.83 484.779 405.35 481.744Z" fill="#10949B"/>
<path d="M229.8 481.744C229.8 481.744 209.925 467.901 202.555 478.131C202.555 478.131 200.32 484.779 229.8 481.744Z" fill="#10949B"/>
<path d="M447.143 344.111C447.143 344.111 448.549 293.876 504.357 304.225C504.357 304.225 456.215 302.433 452.915 344.689L447.143 344.111Z" fill="#17CECE"/>
<path d="M460.137 335.45C460.137 335.45 486.405 292.617 529.605 329.528C529.605 329.528 488.773 303.944 464.843 338.914L460.137 335.45Z" fill="#17CECE"/>
<path d="M442.17 345.917C442.17 345.917 478.562 320.585 492.044 339.299C492.044 339.299 496.084 351.484 442.17 345.917Z" fill="#10949B"/>
<path d="M443.443 346.747C443.443 346.747 433.543 322.036 446.3 316.662C446.3 316.662 453.966 315.921 443.443 346.747Z" fill="#0B6060"/>
<path d="M204.005 343.06C204.005 343.06 202.126 276.065 127.7 289.878C127.7 289.878 191.914 287.48 196.31 343.845L204.005 343.06Z" fill="#17CECE"/>
<path d="M208.978 345.163C208.978 345.163 172.586 319.846 159.104 338.56C159.09 338.56 155.02 350.73 208.978 345.163Z" fill="#10949B"/>
<path d="M192.269 24.9767C192.269 25.5624 192.096 26.1349 191.771 26.6219C191.445 27.1088 190.983 27.4883 190.442 27.7125C189.901 27.9366 189.306 27.9952 188.732 27.881C188.158 27.7667 187.63 27.4847 187.217 27.0706C186.803 26.6565 186.521 26.1288 186.406 25.5544C186.292 24.98 186.351 24.3846 186.575 23.8436C186.799 23.3025 187.178 22.84 187.665 22.5147C188.152 22.1893 188.724 22.0156 189.309 22.0156C190.094 22.0156 190.847 22.3276 191.402 22.8829C191.957 23.4382 192.269 24.1914 192.269 24.9767Z" fill="white"/>
<path d="M209.762 51.1539C209.765 51.5505 209.65 51.939 209.432 52.2699C209.213 52.6009 208.902 52.8593 208.536 53.0125C208.17 53.1656 207.767 53.2064 207.378 53.1297C206.989 53.0531 206.632 52.8624 206.352 52.582C206.071 52.3016 205.881 51.9441 205.804 51.555C205.728 51.1659 205.768 50.7628 205.922 50.397C206.075 50.0312 206.333 49.7192 206.664 49.5007C206.995 49.2822 207.383 49.167 207.779 49.17C208.305 49.17 208.81 49.379 209.182 49.7511C209.553 50.1231 209.762 50.6278 209.762 51.1539Z" fill="white"/>
<path d="M400.007 444.021C401.658 444.021 402.997 442.682 402.997 441.03C402.997 439.378 401.658 438.039 400.007 438.039C398.356 438.039 397.018 439.378 397.018 441.03C397.018 442.682 398.356 444.021 400.007 444.021Z" fill="white"/>
<path d="M164.817 458.085C166.468 458.085 167.806 456.746 167.806 455.094C167.806 453.443 166.468 452.104 164.817 452.104C163.166 452.104 161.827 453.443 161.827 455.094C161.827 456.746 163.166 458.085 164.817 458.085Z" fill="white"/>
<path d="M538.647 348.924C538.647 349.51 538.474 350.082 538.148 350.569C537.823 351.056 537.361 351.436 536.82 351.66C536.279 351.884 535.684 351.943 535.11 351.828C534.536 351.714 534.008 351.432 533.594 351.018C533.181 350.604 532.899 350.076 532.784 349.502C532.67 348.927 532.729 348.332 532.953 347.791C533.177 347.25 533.556 346.787 534.043 346.462C534.53 346.137 535.102 345.963 535.687 345.963C536.472 345.963 537.225 346.275 537.78 346.83C538.335 347.385 538.647 348.139 538.647 348.924Z" fill="white"/>
<path d="M577.303 97.2873C577.303 97.8729 577.129 98.4455 576.804 98.9324C576.479 99.4194 576.017 99.7989 575.476 100.023C574.935 100.247 574.34 100.306 573.766 100.192C573.192 100.077 572.664 99.7952 572.25 99.3811C571.836 98.967 571.554 98.4394 571.44 97.865C571.326 97.2906 571.385 96.6952 571.609 96.1541C571.833 95.613 572.212 95.1506 572.699 94.8252C573.186 94.4998 573.758 94.3262 574.343 94.3262C575.128 94.3262 575.881 94.6381 576.436 95.1935C576.991 95.7488 577.303 96.502 577.303 97.2873Z" fill="white"/>
<path d="M371.593 2.96112C371.593 3.54677 371.419 4.11928 371.094 4.60623C370.769 5.09318 370.306 5.47272 369.765 5.69684C369.225 5.92096 368.629 5.9796 368.055 5.86534C367.481 5.75109 366.954 5.46907 366.54 5.05495C366.126 4.64083 365.844 4.11321 365.73 3.53881C365.616 2.96441 365.674 2.36902 365.898 1.82795C366.122 1.28687 366.502 0.824411 366.988 0.499039C367.475 0.173667 368.047 0 368.633 0C369.418 0 370.171 0.311974 370.726 0.867292C371.281 1.42261 371.593 2.17578 371.593 2.96112Z" fill="white"/>
<path d="M187.711 176.779C187.711 177.365 187.538 177.938 187.212 178.425C186.887 178.912 186.425 179.291 185.884 179.515C185.343 179.739 184.748 179.798 184.174 179.684C183.6 179.569 183.072 179.287 182.658 178.873C182.244 178.459 181.963 177.932 181.848 177.357C181.734 176.783 181.793 176.187 182.017 175.646C182.241 175.105 182.62 174.643 183.107 174.317C183.594 173.992 184.166 173.818 184.751 173.818C185.536 173.818 186.289 174.13 186.844 174.686C187.399 175.241 187.711 175.994 187.711 176.779Z" fill="white"/>
<path d="M423.39 149.108C423.39 149.693 423.216 150.266 422.891 150.753C422.566 151.24 422.104 151.619 421.563 151.843C421.022 152.067 420.427 152.126 419.853 152.012C419.278 151.898 418.751 151.616 418.337 151.201C417.923 150.787 417.641 150.26 417.527 149.685C417.413 149.111 417.471 148.516 417.696 147.974C417.92 147.433 418.299 146.971 418.786 146.646C419.272 146.32 419.845 146.146 420.43 146.146C421.215 146.146 421.968 146.458 422.523 147.014C423.078 147.569 423.39 148.322 423.39 149.108Z" fill="white"/>
<path d="M184.603 326.537C184.606 326.933 184.491 327.322 184.273 327.653C184.054 327.984 183.742 328.242 183.377 328.395C183.011 328.548 182.608 328.589 182.219 328.513C181.83 328.436 181.473 328.245 181.193 327.965C180.912 327.684 180.722 327.327 180.645 326.938C180.568 326.549 180.609 326.146 180.762 325.78C180.915 325.414 181.174 325.102 181.505 324.883C181.835 324.665 182.224 324.55 182.62 324.553C183.146 324.553 183.65 324.762 184.022 325.134C184.394 325.506 184.603 326.011 184.603 326.537Z" fill="white"/>
<path d="M434.623 408.502C434.623 408.894 434.507 409.277 434.289 409.604C434.071 409.93 433.761 410.184 433.399 410.334C433.036 410.485 432.638 410.524 432.253 410.447C431.868 410.371 431.515 410.182 431.238 409.904C430.96 409.627 430.771 409.273 430.695 408.889C430.618 408.504 430.658 408.105 430.808 407.742C430.958 407.38 431.212 407.07 431.538 406.852C431.864 406.634 432.248 406.518 432.64 406.518C433.166 406.518 433.67 406.727 434.042 407.099C434.414 407.471 434.623 407.975 434.623 408.502Z" fill="white"/>
<path d="M416.242 452.177C416.242 452.57 416.126 452.953 415.908 453.28C415.69 453.606 415.38 453.86 415.018 454.01C414.656 454.16 414.257 454.2 413.872 454.123C413.487 454.047 413.134 453.858 412.857 453.58C412.579 453.303 412.39 452.949 412.314 452.564C412.237 452.179 412.277 451.781 412.427 451.418C412.577 451.056 412.831 450.746 413.157 450.528C413.483 450.31 413.867 450.193 414.259 450.193C414.785 450.193 415.289 450.402 415.661 450.774C416.033 451.146 416.242 451.651 416.242 452.177Z" fill="white"/>
<path d="M211.331 412.468C211.331 412.861 211.215 413.244 210.997 413.571C210.779 413.897 210.469 414.151 210.107 414.301C209.744 414.451 209.346 414.491 208.961 414.414C208.576 414.338 208.223 414.149 207.946 413.871C207.668 413.594 207.479 413.24 207.403 412.855C207.326 412.471 207.366 412.072 207.516 411.709C207.666 411.347 207.92 411.037 208.246 410.819C208.572 410.601 208.956 410.484 209.348 410.484C209.874 410.484 210.378 410.693 210.75 411.065C211.122 411.438 211.331 411.942 211.331 412.468Z" fill="white"/>
<path d="M556.066 174.707C556.066 175.099 555.95 175.483 555.732 175.809C555.514 176.135 555.204 176.389 554.842 176.54C554.479 176.69 554.081 176.729 553.696 176.652C553.311 176.576 552.958 176.387 552.68 176.109C552.403 175.832 552.214 175.479 552.138 175.094C552.061 174.709 552.1 174.31 552.251 173.947C552.401 173.585 552.655 173.275 552.981 173.057C553.307 172.839 553.69 172.723 554.083 172.723C554.607 172.727 555.11 172.937 555.481 173.308C555.852 173.679 556.062 174.182 556.066 174.707Z" fill="white"/>
<path d="M123.716 382V350.08C125.876 349.696 128.804 349.408 132.74 349.408C137.06 349.408 140.18 350.32 142.244 352.048C144.164 353.632 145.412 356.176 145.412 359.2C145.412 362.272 144.452 364.768 142.676 366.496C140.276 368.848 136.628 370 132.452 370C131.348 370 130.388 369.952 129.572 369.76V382H123.716ZM129.572 354.256V365.104C130.34 365.344 131.252 365.392 132.452 365.392C136.868 365.392 139.556 363.184 139.556 359.44C139.556 355.84 137.06 353.968 132.98 353.968C131.348 353.968 130.196 354.112 129.572 354.256ZM163.81 372.832H153.586L150.802 382H144.706L155.074 349.648H162.61L173.122 382H166.738L163.81 372.832ZM154.546 368.368H162.85L160.306 360.4C159.682 358.432 159.154 356.224 158.674 354.352H158.578C158.098 356.224 157.57 358.48 157.042 360.4L154.546 368.368ZM202.511 364.144V380.512C200.447 381.28 196.415 382.336 192.143 382.336C186.671 382.336 182.495 380.944 179.423 378.016C176.543 375.28 174.911 371.008 174.911 366.112C174.959 355.84 182.207 349.312 192.911 349.312C196.895 349.312 200.015 350.128 201.503 350.848L200.207 355.6C198.431 354.784 196.271 354.208 192.863 354.208C185.951 354.208 181.103 358.288 181.103 365.824C181.103 373.168 185.615 377.536 192.335 377.536C194.495 377.536 196.031 377.248 196.799 376.912V368.8H191.087V364.144H202.511ZM226.655 362.848V367.648H214.463V377.152H228.095V382H208.559V349.648H227.375V354.496H214.463V362.848H226.655ZM248.624 382H243.152V349.648H249.92L258.272 363.52C260.384 367.12 262.304 370.864 263.792 374.368H263.888C263.456 370.048 263.36 365.872 263.36 360.928V349.648H268.832V382H262.688L254.24 367.744C252.176 364.192 250.064 360.256 248.48 356.608L248.288 356.656C248.528 360.832 248.624 365.104 248.624 370.432V382ZM289.365 349.072C298.773 349.072 304.341 356.224 304.341 365.488C304.341 376.336 297.765 382.528 288.885 382.528C279.717 382.528 273.957 375.52 273.957 366.064C273.957 356.08 280.245 349.072 289.365 349.072ZM289.173 353.824C283.317 353.824 280.197 359.248 280.197 365.92C280.197 372.544 283.509 377.776 289.173 377.776C294.885 377.776 298.101 372.448 298.101 365.68C298.101 359.584 295.077 353.824 289.173 353.824ZM314.314 382V354.592H305.098V349.648H329.53V354.592H320.218V382H314.314ZM343.278 382V349.648H361.998V354.496H349.182V363.424H361.086V368.224H349.182V382H343.278ZM381.428 349.072C390.836 349.072 396.404 356.224 396.404 365.488C396.404 376.336 389.828 382.528 380.948 382.528C371.78 382.528 366.02 375.52 366.02 366.064C366.02 356.08 372.308 349.072 381.428 349.072ZM381.236 353.824C375.38 353.824 372.26 359.248 372.26 365.92C372.26 372.544 375.572 377.776 381.236 377.776C386.948 377.776 390.164 372.448 390.164 365.68C390.164 359.584 387.14 353.824 381.236 353.824ZM401.449 349.648H407.353V368.512C407.353 374.848 409.993 377.776 413.977 377.776C418.249 377.776 420.793 374.848 420.793 368.512V349.648H426.697V368.128C426.697 378.112 421.561 382.528 413.785 382.528C406.297 382.528 401.449 378.352 401.449 368.176V349.648ZM438.89 382H433.418V349.648H440.186L448.538 363.52C450.65 367.12 452.57 370.864 454.058 374.368H454.154C453.722 370.048 453.626 365.872 453.626 360.928V349.648H459.098V382H452.954L444.506 367.744C442.442 364.192 440.33 360.256 438.746 356.608L438.554 356.656C438.794 360.832 438.89 365.104 438.89 370.432V382ZM465.903 381.904V350.08C468.543 349.696 471.807 349.408 475.311 349.408C481.359 349.408 485.487 350.656 488.463 353.152C491.631 355.696 493.551 359.584 493.551 365.056C493.551 370.864 491.583 375.136 488.511 377.92C485.295 380.848 480.159 382.336 473.871 382.336C470.463 382.336 467.871 382.144 465.903 381.904ZM471.807 354.352V377.536C472.623 377.68 473.871 377.68 475.071 377.68C482.751 377.728 487.311 373.456 487.311 365.248C487.359 358.144 483.231 354.016 475.839 354.016C473.967 354.016 472.671 354.16 471.807 354.352Z" fill="white"/>
</svg>
